<svg width="227" height="25" viewBox="0 0 227 25" fill="none" xmlns="http://www.w3.org/2000/svg">
<path d="M17.01 2.94V7.05H11.43V24H6.3V7.05H0.72V2.94H17.01ZM24.7146 10.05C25.3146 9.13 26.0646 8.41 26.9646 7.89C27.8646 7.35 28.8646 7.08 29.9646 7.08V12.51H28.5546C27.2746 12.51 26.3146 12.79 25.6746 13.35C25.0346 13.89 24.7146 14.85 24.7146 16.23V24H19.5846V7.26H24.7146V10.05ZM48.1966 15.36C48.1966 15.84 48.1666 16.34 48.1066 16.86H36.4966C36.5766 17.9 36.9066 18.7 37.4866 19.26C38.0866 19.8 38.8166 20.07 39.6766 20.07C40.9566 20.07 41.8466 19.53 42.3466 18.45H47.8066C47.5266 19.55 47.0166 20.54 46.2766 21.42C45.5566 22.3 44.6466 22.99 43.5466 23.49C42.4466 23.99 41.2166 24.24 39.8566 24.24C38.2166 24.24 36.7566 23.89 35.4766 23.19C34.1966 22.49 33.1966 21.49 32.4766 20.19C31.7566 18.89 31.3966 17.37 31.3966 15.63C31.3966 13.89 31.7466 12.37 32.4466 11.07C33.1666 9.77 34.1666 8.77 35.4466 8.07C36.7266 7.37 38.1966 7.02 39.8566 7.02C41.4766 7.02 42.9166 7.36 44.1766 8.04C45.4366 8.72 46.4166 9.69 47.1166 10.95C47.8366 12.21 48.1966 13.68 48.1966 15.36ZM42.9466 14.01C42.9466 13.13 42.6466 12.43 42.0466 11.91C41.4466 11.39 40.6966 11.13 39.7966 11.13C38.9366 11.13 38.2066 11.38 37.6066 11.88C37.0266 12.38 36.6666 13.09 36.5266 14.01H42.9466ZM57.713 24.24C56.253 24.24 54.953 23.99 53.813 23.49C52.673 22.99 51.773 22.31 51.113 21.45C50.453 20.57 50.083 19.59 50.003 18.51H55.073C55.133 19.09 55.403 19.56 55.883 19.92C56.363 20.28 56.953 20.46 57.653 20.46C58.293 20.46 58.783 20.34 59.123 20.1C59.483 19.84 59.663 19.51 59.663 19.11C59.663 18.63 59.413 18.28 58.913 18.06C58.413 17.82 57.603 17.56 56.483 17.28C55.283 17 54.283 16.71 53.483 16.41C52.683 16.09 51.993 15.6 51.413 14.94C50.833 14.26 50.543 13.35 50.543 12.21C50.543 11.25 50.803 10.38 51.323 9.6C51.863 8.8 52.643 8.17 53.663 7.71C54.703 7.25 55.933 7.02 57.353 7.02C59.453 7.02 61.103 7.54 62.303 8.58C63.523 9.62 64.223 11 64.403 12.72H59.663C59.583 12.14 59.323 11.68 58.883 11.34C58.463 11 57.903 10.83 57.203 10.83C56.603 10.83 56.143 10.95 55.823 11.19C55.503 11.41 55.343 11.72 55.343 12.12C55.343 12.6 55.593 12.96 56.093 13.2C56.613 13.44 57.413 13.68 58.493 13.92C59.733 14.24 60.743 14.56 61.523 14.88C62.303 15.18 62.983 15.68 63.563 16.38C64.163 17.06 64.473 17.98 64.493 19.14C64.493 20.12 64.213 21 63.653 21.78C63.113 22.54 62.323 23.14 61.283 23.58C60.263 24.02 59.073 24.24 57.713 24.24ZM76.0315 11.52H73.2715V24H68.1415V11.52H66.2815V7.26H68.1415V6.78C68.1415 4.72 68.7315 3.16 69.9115 2.1C71.0915 1.02 72.8215 0.479999 75.1015 0.479999C75.4815 0.479999 75.7615 0.489999 75.9415 0.509998V4.86C74.9615 4.8 74.2715 4.94 73.8715 5.28C73.4715 5.62 73.2715 6.23 73.2715 7.11V7.26H76.0315V11.52ZM86.062 24.24C84.422 24.24 82.942 23.89 81.622 23.19C80.322 22.49 79.292 21.49 78.532 20.19C77.792 18.89 77.422 17.37 77.422 15.63C77.422 13.91 77.802 12.4 78.562 11.1C79.322 9.78 80.362 8.77 81.682 8.07C83.002 7.37 84.482 7.02 86.122 7.02C87.762 7.02 89.242 7.37 90.562 8.07C91.882 8.77 92.922 9.78 93.682 11.1C94.442 12.4 94.822 13.91 94.822 15.63C94.822 17.35 94.432 18.87 93.652 20.19C92.892 21.49 91.842 22.49 90.502 23.19C89.182 23.89 87.702 24.24 86.062 24.24ZM86.062 19.8C87.042 19.8 87.872 19.44 88.552 18.72C89.252 18 89.602 16.97 89.602 15.63C89.602 14.29 89.262 13.26 88.582 12.54C87.922 11.82 87.102 11.46 86.122 11.46C85.122 11.46 84.292 11.82 83.632 12.54C82.972 13.24 82.642 14.27 82.642 15.63C82.642 16.97 82.962 18 83.602 18.72C84.262 19.44 85.082 19.8 86.062 19.8ZM102.674 10.05C103.274 9.13 104.024 8.41 104.924 7.89C105.824 7.35 106.824 7.08 107.924 7.08V12.51H106.514C105.234 12.51 104.274 12.79 103.634 13.35C102.994 13.89 102.674 14.85 102.674 16.23V24H97.5436V7.26H102.674V10.05ZM109.356 15.6C109.356 13.88 109.676 12.37 110.316 11.07C110.976 9.77 111.866 8.77 112.986 8.07C114.106 7.37 115.356 7.02 116.736 7.02C117.836 7.02 118.836 7.25 119.736 7.71C120.656 8.17 121.376 8.79 121.896 9.57V1.8H127.026V24H121.896V21.6C121.416 22.4 120.726 23.04 119.826 23.52C118.946 24 117.916 24.24 116.736 24.24C115.356 24.24 114.106 23.89 112.986 23.19C111.866 22.47 110.976 21.46 110.316 20.16C109.676 18.84 109.356 17.32 109.356 15.6ZM121.896 15.63C121.896 14.35 121.536 13.34 120.816 12.6C120.116 11.86 119.256 11.49 118.236 11.49C117.216 11.49 116.346 11.86 115.626 12.6C114.926 13.32 114.576 14.32 114.576 15.6C114.576 16.88 114.926 17.9 115.626 18.66C116.346 19.4 117.216 19.77 118.236 19.77C119.256 19.77 120.116 19.4 120.816 18.66C121.536 17.92 121.896 16.91 121.896 15.63Z" fill="white"/>
<path d="M150.204 20.28H142.344L141.084 24H135.714L143.334 2.94H149.274L156.894 24H151.464L150.204 20.28ZM148.884 16.32L146.274 8.61L143.694 16.32H148.884ZM164.344 2.94V24H159.214V2.94H164.344ZM179.549 20.04H186.269V24H174.419V2.94H179.549V20.04ZM187.695 15.6C187.695 13.88 188.015 12.37 188.655 11.07C189.315 9.77 190.205 8.77 191.325 8.07C192.445 7.37 193.695 7.02 195.075 7.02C196.255 7.02 197.285 7.26 198.165 7.74C199.065 8.22 199.755 8.85 200.235 9.63V7.26H205.365V24H200.235V21.63C199.735 22.41 199.035 23.04 198.135 23.52C197.255 24 196.225 24.24 195.045 24.24C193.685 24.24 192.445 23.89 191.325 23.19C190.205 22.47 189.315 21.46 188.655 20.16C188.015 18.84 187.695 17.32 187.695 15.6ZM200.235 15.63C200.235 14.35 199.875 13.34 199.155 12.6C198.455 11.86 197.595 11.49 196.575 11.49C195.555 11.49 194.685 11.86 193.965 12.6C193.265 13.32 192.915 14.32 192.915 15.6C192.915 16.88 193.265 17.9 193.965 18.66C194.685 19.4 195.555 19.77 196.575 19.77C197.595 19.77 198.455 19.4 199.155 18.66C199.875 17.92 200.235 16.91 200.235 15.63ZM214.207 9.63C214.687 8.85 215.377 8.22 216.277 7.74C217.177 7.26 218.207 7.02 219.367 7.02C220.747 7.02 221.997 7.37 223.117 8.07C224.237 8.77 225.117 9.77 225.757 11.07C226.417 12.37 226.747 13.88 226.747 15.6C226.747 17.32 226.417 18.84 225.757 20.16C225.117 21.46 224.237 22.47 223.117 23.19C221.997 23.89 220.747 24.24 219.367 24.24C218.187 24.24 217.157 24.01 216.277 23.55C215.397 23.07 214.707 22.44 214.207 21.66V24H209.077V1.8H214.207V9.63ZM221.527 15.6C221.527 14.32 221.167 13.32 220.447 12.6C219.747 11.86 218.877 11.49 217.837 11.49C216.817 11.49 215.947 11.86 215.227 12.6C214.527 13.34 214.177 14.35 214.177 15.63C214.177 16.91 214.527 17.92 215.227 18.66C215.947 19.4 216.817 19.77 217.837 19.77C218.857 19.77 219.727 19.4 220.447 18.66C221.167 17.9 221.527 16.88 221.527 15.6Z" fill="#007FFF"/>
</svg>
